<svg width="151" height="40" viewBox="0 0 151 40" fill="none" xmlns="http://www.w3.org/2000/svg">
<g clip-path="url(#clip0_11820_118429)">
<path d="M34.7742 11.0558C34.7742 9.42016 33.9453 7.78626 32.2859 6.89597L22.1447 1.4553C20.6507 0.653693 19.027 0.109627 17.3811 0.111332C15.7404 0.111332 14.1219 0.657104 12.6329 1.4553L2.48838 6.89597C0.828892 7.78626 0 9.42187 0 11.0558V29.5438H0.0375219C0.216603 30.9679 1.03356 32.3221 2.48838 33.1033L12.6295 38.5439C14.1185 39.3421 15.737 39.8879 17.3777 39.8879C19.0236 39.8879 20.649 39.3455 22.143 38.5439L32.2841 33.1033C33.739 32.3221 34.5559 30.9679 34.735 29.5438H34.7725V18.6028V11.0575L34.7742 11.0558Z" fill="#1AB7FC"/>
<path d="M28.4728 12.9086L20.6239 8.72132C19.6313 8.19218 18.5124 7.91235 17.3868 7.91235C16.2611 7.91235 15.1423 8.19218 14.1497 8.72132L6.30078 12.9086C5.5367 13.3173 5.45312 14.0296 5.45312 14.3162C5.45312 14.6028 5.53499 15.3168 6.30078 15.7239L14.1497 19.9111C15.1423 20.4403 16.2611 20.7201 17.3868 20.7201C18.5124 20.7201 19.6313 20.4403 20.6239 19.9111L28.4728 15.7239C29.2369 15.3151 29.3204 14.6028 29.3204 14.3162C29.3204 14.0296 29.2386 13.3156 28.4728 12.9086Z" fill="white"/>
<path d="M29.4387 11.116L21.5898 6.92869C20.2766 6.22827 18.832 5.87891 17.3857 5.87891C15.9394 5.87891 14.4948 6.22827 13.1815 6.92869L5.33266 11.116C2.76411 12.4863 2.76411 16.1478 5.33266 17.5181L5.46228 17.5877V26.5083H7.50892V18.6782L9.10019 19.5278V31.2671H11.1468V20.6183L12.8012 21.5002L12.7381 29.2337L14.7847 29.2507L14.841 22.3804C15.3442 22.5296 15.8592 22.6348 16.376 22.6942V34.6743H18.4227V22.6925C18.9787 22.628 19.5313 22.511 20.0702 22.3414L20.0139 29.2337L22.0606 29.2507L22.1254 21.4188L23.6536 20.6048V31.2671H25.7002V19.5126L27.2915 18.6629V26.5066H29.3381V17.5707L29.4404 17.5164C32.009 16.1461 32.009 12.4846 29.4404 11.1143L29.4387 11.116ZM6.2997 12.9086L14.1486 8.7213C15.1412 8.19217 16.26 7.91234 17.3857 7.91234C18.5114 7.91234 19.6302 8.19217 20.6228 8.7213L28.4717 12.9086C29.2358 13.3156 29.3194 14.0296 29.3194 14.3162C29.3194 14.6028 29.2375 15.3168 28.4717 15.7238L20.6228 19.9111C19.6302 20.4402 18.5114 20.7201 17.3857 20.7201C16.26 20.7201 15.1412 20.4402 14.1486 19.9111L6.2997 15.7238C5.53561 15.3151 5.45204 14.6028 5.45204 14.3162C5.45204 14.0296 5.53391 13.3156 6.2997 12.9086Z" fill="#101010"/>
<path fill-rule="evenodd" clip-rule="evenodd" d="M42.7734 19.9177C42.7734 18.0843 43.1418 16.5152 43.8803 15.2002C44.6188 13.9074 45.5637 12.9284 46.7183 12.34C47.8611 11.7516 49.1641 11.4514 50.5831 11.4514C51.9902 11.4514 53.3512 11.7738 54.4598 12.34C55.6025 12.9165 56.5815 13.9091 57.2978 15.2002C58.0363 16.5152 58.4047 18.0843 58.4047 19.9177C58.4047 21.7409 58.0363 23.3083 57.2978 24.6233C56.5832 25.9042 55.6025 26.907 54.4598 27.4835C53.3631 28.048 52.0021 28.3601 50.5831 28.3601C49.1641 28.3601 47.8611 28.0719 46.7183 27.4835C45.5654 26.8951 44.6188 25.9144 43.8803 24.6233C43.1418 23.3083 42.7734 21.7392 42.7734 19.9177ZM46.2681 19.9177C46.2681 21.6591 46.6825 22.974 47.5029 23.8405C48.3335 24.7171 49.3602 25.1554 50.5831 25.1554C51.8281 25.1554 52.8446 24.7171 53.6752 23.8405C54.4939 22.9757 54.9203 21.671 54.9203 19.9177C54.9203 18.1644 54.5058 16.8494 53.6752 15.9728C52.8566 15.1081 51.8298 14.6698 50.5831 14.6698C49.3602 14.6698 48.3216 15.1081 47.5029 15.9728C46.6723 16.8494 46.2681 18.1764 46.2681 19.9177ZM73.2822 12.9198C74.4812 13.7965 75.3016 15.1114 75.728 16.8528L72.6256 17.6493C71.911 15.7459 70.6301 14.8112 68.7967 14.8112C67.5516 14.8112 66.501 15.2615 65.6824 16.1382C64.8518 17.0387 64.4475 18.3417 64.4475 20.0609C64.4475 21.7681 64.8518 23.0712 65.6824 23.9717C66.501 24.8483 67.5516 25.2986 68.7967 25.2986C70.6301 25.2986 71.911 24.364 72.6256 22.4606L75.728 23.2451C75.3016 24.9865 74.4829 26.3015 73.2822 27.19C72.0832 28.0667 70.5943 28.505 68.795 28.505C66.6033 28.505 64.746 27.7546 63.223 26.2554C61.7119 24.7562 60.9614 22.6908 60.9614 20.049C60.9614 17.419 61.7221 15.3434 63.2332 13.8544C64.7682 12.3553 66.6136 11.5929 68.7933 11.5929C70.5807 11.5929 72.0815 12.0312 73.2805 12.9198H73.2822ZM89.3725 11.7788H77.0193V14.9852H81.4827V28.3208H84.9091V14.9852H89.3725V11.7788ZM90.5713 20.0609C90.5713 18.2274 90.9397 16.6583 91.6782 15.3434C92.4167 14.0506 93.3615 13.0716 94.5162 12.4832C95.6589 11.8948 96.9619 11.5946 98.3809 11.5946C99.788 11.5946 101.149 11.917 102.258 12.4832C103.4 13.0597 104.379 14.0523 105.096 15.3434C105.834 16.6583 106.203 18.2274 106.203 20.0609C106.203 21.8944 105.834 23.4515 105.096 24.7665C104.381 26.0473 103.4 27.0502 102.258 27.6267C101.161 28.1912 99.8 28.5033 98.3809 28.5033C96.9619 28.5033 95.6589 28.2151 94.5162 27.6267C93.3633 27.0383 92.4167 26.0576 91.6782 24.7665C90.9397 23.4515 90.5713 21.8824 90.5713 20.0609ZM94.0659 20.0609C94.0659 21.8023 94.4804 23.1172 95.3007 23.9836C96.1313 24.8603 97.1581 25.2986 98.3809 25.2986C99.626 25.2986 100.642 24.8603 101.473 23.9836C102.292 23.1189 102.718 21.8142 102.718 20.0609C102.718 18.3076 102.304 16.9926 101.473 16.116C100.654 15.2513 99.6277 14.813 98.3809 14.813C97.1342 14.813 96.1194 15.2513 95.3007 16.116C94.4701 16.9926 94.0659 18.3195 94.0659 20.0609ZM115.521 11.7788H109.054V28.3208H112.491V22.0223H115.521C117.205 22.0223 118.509 21.5498 119.42 20.6152C120.343 19.6584 120.781 18.4355 120.781 16.9125C120.781 15.3775 120.331 14.1444 119.42 13.1978C118.52 12.2512 117.217 11.7788 115.521 11.7788ZM117.285 16.9108C117.285 18.1916 116.662 18.8142 115.405 18.8142H112.489V14.9852H115.405C116.662 14.9852 117.285 15.6299 117.285 16.9108ZM123.952 11.7788H127.389V22.0223C127.389 24.202 128.3 25.2867 130.169 25.2986C132.026 25.2986 132.961 24.2139 132.961 22.0223V11.7788H136.397V21.9762C136.397 24.1218 135.833 25.7489 134.714 26.8558C133.595 27.9524 132.072 28.505 130.181 28.505C128.277 28.505 126.766 27.9627 125.636 26.8558C124.505 25.7591 123.952 24.1218 123.952 21.9762V11.7788ZM147.558 19.2986C148.249 19.6807 148.849 20.2213 149.346 20.8796L149.349 20.8779C149.844 21.5346 150.11 22.389 150.11 23.3117C150.11 24.9269 149.614 26.218 148.645 27.1526C147.664 28.0855 146.349 28.5477 144.734 28.5477C143.279 28.5477 142.022 28.1094 140.961 27.1987C140.074 26.438 139.454 25.4761 139.107 24.3402L141.865 22.6295C142.276 23.7927 143.136 24.6438 143.136 24.6438C143.612 25.1077 144.166 25.3413 144.802 25.3413C146.049 25.3413 146.66 24.729 146.671 23.4721C146.671 23.0798 146.465 22.7216 146.061 22.3873C145.599 22.0189 145.056 21.6966 144.446 21.4305C143.765 21.1423 143.107 20.808 142.438 20.4277C141.734 20.0354 141.146 19.4828 140.661 18.7904C140.177 18.0877 139.947 17.2332 139.947 16.2303C139.947 14.9512 140.373 13.8665 141.25 12.9779C142.126 12.0774 143.245 11.639 144.56 11.639C146.822 11.639 148.471 12.7238 149.498 14.8813L146.723 16.6277C146.617 16.4487 146.496 16.2593 146.356 16.0598C145.827 15.2531 145.232 14.8489 144.56 14.8591C143.799 14.8591 143.245 15.3776 143.245 16.1041C143.245 16.5305 143.453 16.9347 143.868 17.281V17.269C144.352 17.6613 144.906 17.9956 145.529 18.2838C146.197 18.5942 146.89 18.9302 147.558 19.2986Z" fill="#101010"/>
</g>
<defs>
<clipPath id="clip0_11820_118429">
<rect width="150.111" height="39.7766" fill="white" transform="translate(0 0.111328)"/>
</clipPath>
</defs>
</svg>
