<?xml version="1.0" encoding="UTF-8"?>
<svg width="" height="" viewBox="0 0 103 23" version="1.1"
    xmlns="http://www.w3.org/2000/svg" xmlns:xlink="http://www.w3.org/1999/xlink">
    <title>Sofomo</title>
    <g id="Sofomo" stroke="none" stroke-width="1" fill="none" fill-rule="evenodd">
        <path
            d="M10.6901544,14.7114171 C10.2331765,14.312934 9.70341176,13.9706201 9.10044118,13.6847403 C8.49733088,13.3988605 7.85747794,13.1608039 7.18172059,12.9699083 C6.14007353,12.6755501 5.34039706,12.3810595 4.78325,12.0863039 C4.22554412,11.7918133 3.94711029,11.4453926 3.94711029,11.0465122 C3.94711029,10.8215706 4.02003676,10.6176925 4.16644853,10.4358051 C4.31258088,10.2537852 4.49964706,10.1068711 4.72834559,9.99387041 C4.956625,9.88139962 5.20334559,9.79489382 5.46850735,9.73395559 C5.73311029,9.67354725 5.98458088,9.64307814 6.22222059,9.64307814 C6.91655882,9.64307814 7.55599265,9.79900053 8.14094118,10.1108453 C8.72561029,10.4226901 9.24643382,10.8475356 9.70341176,11.3844544 L12.0606691,9.12311603 C10.5223676,7.39061554 8.54399265,6.52396787 6.12680147,6.52396787 C5.37546324,6.52396787 4.63376471,6.62796029 3.90142647,6.83594513 C3.16852941,7.0437975 2.51372794,7.3426598 1.93674265,7.73266449 C1.35989706,8.12253672 0.893,8.60779053 0.535772059,9.18816097 C0.178683824,9.76892884 -3.41060513e-13,10.4226901 -3.41060513e-13,11.1505046 C-3.41060513e-13,11.8092999 0.137051471,12.3896703 0.411154412,12.8920133 C0.685257353,13.3947538 1.05058824,13.8406627 1.50756618,14.2305349 C1.964125,14.6204071 2.48494853,14.949871 3.07003676,15.2182642 C3.65470588,15.4870548 4.25767647,15.7080221 4.87908824,15.8810337 C5.93875735,16.1757893 6.76106618,16.4747841 7.34615441,16.7777531 C7.93068382,17.0811195 8.22322794,17.4580092 8.22322794,17.9084223 C8.22322794,18.3417461 8.01772059,18.6665734 7.60656618,18.8831691 C7.19527206,19.0998972 6.67891912,19.2079964 6.05778676,19.2079964 C5.34514706,19.2079964 4.67791176,19.0479673 4.05677941,18.7271142 C3.43536765,18.4066586 2.88716176,17.9603523 2.41216176,17.3885926 L0.0275220588,19.6757635 C0.796602941,20.6115629 1.68918382,21.291819 2.70596324,21.7162671 C3.72232353,22.1405826 4.83508088,22.3529391 6.04409559,22.3529391 C6.75799265,22.3529391 7.48152941,22.2530534 8.21428676,22.0540768 C8.946625,21.8551003 9.60617647,21.5602122 10.1921029,21.17034 C10.7780294,20.7804678 11.2542868,20.2995856 11.620875,19.727826 C11.9870441,19.1560664 12.1703382,18.4891901 12.1703382,17.7265349 C12.1703382,17.120067 12.0376176,16.565794 11.772875,16.0629211 C11.5078529,15.5605781 11.1467132,15.1102975 10.6901544,14.7114171 M25.4510588,7.13480743 C24.4172353,6.727846 23.3163529,6.52396787 22.1474338,6.52396787 C20.9962574,6.52396787 19.9087868,6.727846 18.8855809,7.13480743 C17.8619559,7.54216628 16.9668603,8.10544752 16.1993162,8.82425373 C15.4319118,9.54345737 14.8241912,10.3837426 14.3765735,11.3455069 C14.0771838,11.9881404 13.8803382,12.6605805 13.7811471,13.3613702 L17.7711471,13.3613702 C17.8289853,13.1107286 17.9068015,12.8672406 18.0071103,12.6320985 C18.2440515,12.0776931 18.5674706,11.5923068 18.9772279,11.1764696 C19.387125,10.7606324 19.8656176,10.4358051 20.4120074,10.2018552 C20.9585368,9.96790542 21.5419485,9.8509305 22.161125,9.8509305 C22.7804412,9.8509305 23.3638529,9.96790542 23.9101029,10.2018552 C24.4563529,10.4358051 24.9341471,10.7606324 25.3448824,11.1764696 C25.7542206,11.5923068 26.0783382,12.0776931 26.3144412,12.6320985 C26.5519412,13.1869014 26.6706912,13.784626 26.6706912,14.4255372 C26.6706912,15.0667135 26.5519412,15.6645705 26.3144412,16.218976 C26.0783382,16.7736464 25.7542206,17.2586352 25.3448824,17.6744725 C24.9341471,18.0903097 24.4563529,18.4152694 23.9101029,18.6490868 C23.3638529,18.8831691 22.7804412,19.0000115 22.161125,19.0000115 C21.5419485,19.0000115 20.9585368,18.8831691 20.4120074,18.6490868 C19.8656176,18.4152694 19.387125,18.0903097 18.9772279,17.6744725 C18.5674706,17.2586352 18.2440515,16.7736464 18.0071103,16.218976 C17.8890588,15.9423694 17.8003456,15.6548999 17.74125,15.3567 L13.76075,15.3567 C13.8501618,16.1190903 14.0495221,16.8443877 14.3628824,17.5315326 C14.8014191,18.4931644 15.4045294,19.3294754 16.1719338,20.0396708 C16.9394779,20.7503961 17.8345735,21.3091732 18.8581985,21.7162671 C19.8814044,22.1232285 20.9778162,22.3269742 22.1474338,22.3269742 C23.3163529,22.3269742 24.4172353,22.1232285 25.4510588,21.7162671 C26.4820882,21.3091732 27.3831912,20.7545028 28.1501765,20.0527858 C28.9185588,19.3509363 29.5206912,18.5191294 29.9593676,17.5574975 C30.3980441,16.5957332 30.6173824,15.5520997 30.6173824,14.4255372 C30.6173824,13.3167263 30.3980441,12.2770671 29.9593676,11.306427 C29.5206912,10.3363168 28.9185588,9.50013823 28.1501765,8.79828875 C27.3831912,8.09643926 26.4820882,7.54216628 25.4510588,7.13480743 Z M49.7766471,6.52396787 C50.9459853,6.52396787 52.0482647,6.727846 53.0806912,7.13480743 C54.1131176,7.54216628 55.0128235,8.09643926 55.7798088,8.79828875 C56.5481912,9.50013823 57.1503235,10.3363168 57.589,11.306427 C58.0276765,12.2770671 58.2470147,13.3167263 58.2470147,14.4255372 C58.2470147,15.5520997 58.0276765,16.5957332 57.589,17.5574975 C57.1503235,18.5191294 56.5481912,19.3509363 55.7798088,20.0527858 C55.0128235,20.7545028 54.1131176,21.3091732 53.0806912,21.7162671 C52.0482647,22.1232285 50.9459853,22.3269742 49.7766471,22.3269742 C48.6073088,22.3269742 47.5106176,22.1232285 46.4879706,21.7162671 C45.4639265,21.3091732 44.5698088,20.7503961 43.8014265,20.0396708 C43.0344412,19.3294754 42.4309118,18.4931644 41.9922353,17.5315326 C41.6792941,16.8443877 41.4795147,16.1190903 41.3901029,15.3567 L45.3717206,15.3567 C45.4303971,15.6548999 45.5184118,15.9423694 45.6371618,16.218976 C45.8732647,16.7736464 46.1973824,17.2586352 46.6067206,17.6744725 C47.0174559,18.0903097 47.49525,18.4152694 48.0415,18.6490868 C48.58775,18.8831691 49.1717206,19.0000115 49.7906176,19.0000115 C50.4109118,19.0000115 50.9934853,18.8831691 51.5397353,18.6490868 C52.0859853,18.4152694 52.5651765,18.0903097 52.9745147,17.6744725 C53.3838529,17.2586352 53.7079706,16.7736464 53.9440735,16.218976 C54.1815735,15.6645705 54.3003235,15.0667135 54.3003235,14.4255372 C54.3003235,13.784626 54.1815735,13.1869014 53.9440735,12.6320985 C53.7079706,12.0776931 53.3838529,11.5923068 52.9745147,11.1764696 C52.5651765,10.7606324 52.0859853,10.4358051 51.5397353,10.2018552 C50.9934853,9.96790542 50.4109118,9.8509305 49.7906176,9.8509305 C49.1717206,9.8509305 48.58775,9.96790542 48.0415,10.2018552 C47.49525,10.4358051 47.0174559,10.7606324 46.6067206,11.1764696 C46.1973824,11.5923068 45.8732647,12.0776931 45.6371618,12.6320985 C45.5365735,12.8672406 45.4583382,13.1107286 45.4010588,13.3613702 L41.4110588,13.3613702 C41.51025,12.6605805 41.7072353,11.9881404 42.0062059,11.3455069 C42.4546618,10.3837426 43.0623824,9.54345737 43.8293676,8.82425373 C44.5963529,8.10544752 45.4918676,7.54216628 46.5159118,7.13480743 C47.5385588,6.727846 48.6254706,6.52396787 49.7766471,6.52396787 Z M38.5931912,0 C39.5264265,0 40.5211324,0.121479045 41.5815,0.363907238 L41.5815,3.7948623 C41.1973088,3.65642653 40.8592206,3.5654166 40.5672353,3.52183251 C40.27525,3.4789108 39.9553235,3.45692005 39.6074559,3.45692005 C38.8404706,3.45692005 38.2970147,3.61734657 37.9770882,3.9378022 C37.6571618,4.25865525 37.4978971,4.86048655 37.4978971,5.74422342 L37.4978971,6.93980508 L39.9916471,6.93980508 L39.9916471,10.2148377 L37.4978971,10.2148377 L37.4978971,21.9371019 L33.5498088,21.9371019 L33.5498088,10.2148377 L31.6316471,10.2148377 L31.6316471,6.93980508 L33.5498088,6.93980508 L33.5498088,5.79628587 C33.5498088,3.9077305 33.9228235,2.46919075 34.6674559,1.48159394 C35.4134853,0.493864646 36.7211324,0 38.5931912,0 Z M82.0095882,7.99257931 C81.4605441,7.48162546 80.8165,7.10884244 80.0760588,6.87489261 C79.3342206,6.64094278 78.5518676,6.52396787 77.729,6.52396787 C76.7217206,6.52396787 75.7982647,6.6714119 74.9572353,6.96590254 C74.1148088,7.26065813 73.2835588,7.75452277 72.4592941,8.447364 C71.8739265,7.82354195 71.1935588,7.34716393 70.4153971,7.01783251 C69.6372353,6.68889852 68.8646618,6.52396787 68.0962794,6.52396787 C67.4005441,6.52396787 66.7201765,6.66293354 66.0523824,6.93980508 C65.3845882,7.21720652 64.8034118,7.58111376 64.3088529,8.03152679 L64.3046618,6.91384009 L60.3579706,6.91384009 L60.3579706,21.9371019 L64.3046618,21.9371019 L64.3046618,10.9945822 C64.7978235,10.5616558 65.2728235,10.2453069 65.7296618,10.0459329 C66.1865,9.8468238 66.7173824,9.74693808 67.3195147,9.74693808 C68.0878971,9.74693808 68.7403235,10.0198354 69.2795882,10.56563 C69.8188529,11.1115571 70.0884853,11.9131598 70.0884853,12.9699083 L70.0884853,21.9371019 L74.0351765,21.9371019 L74.0351765,12.9699083 C74.0351765,12.2076505 73.9541471,11.5232876 73.7892941,10.9165548 C74.3006176,10.5007175 74.8259118,10.2018552 75.3651765,10.0198354 C75.9044412,9.83794801 76.4758382,9.74693808 77.0779706,9.74693808 C77.8631176,9.74693808 78.5267206,10.0198354 79.0659853,10.56563 C79.6038529,11.1115571 79.8734853,11.9131598 79.8734853,12.9699083 L79.8734853,21.9371019 L83.8215735,21.9371019 L83.8215735,12.7880209 C83.8215735,11.6793425 83.6567206,10.7305607 83.3270147,9.94194043 C82.9973088,9.15358515 82.5586324,8.50393058 82.0095882,7.99257931 M102.159368,11.306427 C101.720691,10.3363168 101.117162,9.50013823 100.350176,8.79828875 C99.5817941,8.09643926 98.6820882,7.54216628 97.6496618,7.13480743 C96.6172353,6.727846 95.5163529,6.52396787 94.3470147,6.52396787 C93.1958382,6.52396787 92.1089265,6.727846 91.0848824,7.13480743 C90.0608382,7.54216628 89.1667206,8.10544752 88.3983382,8.82425373 C87.6313529,9.54345737 87.0236324,10.3837426 86.5765735,11.3455069 C86.2762059,11.9881404 86.0792206,12.6605805 85.9800294,13.3613702 L89.9700294,13.3613702 C90.0287059,13.1107286 90.1055441,12.8672406 90.2061324,12.6320985 C90.4436324,12.0776931 90.7663529,11.5923068 91.1770882,11.1764696 C91.5864265,10.7606324 92.0642206,10.4358051 92.6118676,10.2018552 C93.1581176,9.96790542 93.7406912,9.8509305 94.3609853,9.8509305 C94.9798824,9.8509305 95.5624559,9.96790542 96.1087059,10.2018552 C96.6563529,10.4358051 97.1341471,10.7606324 97.5448824,11.1764696 C97.9542206,11.5923068 98.2769412,12.0776931 98.5144412,12.6320985 C98.7505441,13.1869014 98.8692941,13.784626 98.8692941,14.4255372 C98.8692941,15.0667135 98.7505441,15.6645705 98.5144412,16.218976 C98.2769412,16.7736464 97.9542206,17.2586352 97.5448824,17.6744725 C97.1341471,18.0903097 96.6563529,18.4152694 96.1087059,18.6490868 C95.5624559,18.8831691 94.9798824,19.0000115 94.3609853,19.0000115 C93.7406912,19.0000115 93.1581176,18.8831691 92.6118676,18.6490868 C92.0642206,18.4152694 91.5864265,18.0903097 91.1770882,17.6744725 C90.7663529,17.2586352 90.4436324,16.7736464 90.2061324,16.218976 C90.0887794,15.9423694 89.9993676,15.6548999 89.9406912,15.3567 L85.9604706,15.3567 C86.0498824,16.1190903 86.2496618,16.8443877 86.5626029,17.5315326 C87.0012794,18.4931644 87.6034118,19.3294754 88.3717941,20.0396708 C89.1387794,20.7503961 90.0342941,21.3091732 91.0583382,21.7162671 C92.0809853,22.1232285 93.1776765,22.3269742 94.3470147,22.3269742 C95.5163529,22.3269742 96.6172353,22.1232285 97.6496618,21.7162671 C98.6820882,21.3091732 99.5817941,20.7545028 100.350176,20.0527858 C101.117162,19.3509363 101.720691,18.5191294 102.159368,17.5574975 C102.598044,16.5957332 102.817382,15.5520997 102.817382,14.4255372 C102.817382,13.3167263 102.598044,12.2770671 102.159368,11.306427"
            id="icon" fill="currentColor"></path>
    </g>
</svg>